<svg width="22" height="22" viewBox="0 0 22 22" fill="none" xmlns="http://www.w3.org/2000/svg">
  <path d="M11 4.5C6.40909 4.5 2.47727 7.61364 1 12C2.47727 16.3864 6.40909 19.5 11 19.5C15.5909 19.5 19.5227 16.3864 21 12C19.5227 7.61364 15.5909 4.5 11 4.5ZM11 17C8.51591 17 6.5 14.9841 6.5 12.5C6.5 10.0159 8.51591 8 11 8C13.4841 8 15.5 10.0159 15.5 12.5C15.5 14.9841 13.4841 17 11 17ZM11 10C9.61818 10 8.5 11.1182 8.5 12.5C8.5 13.8818 9.61818 15 11 15C12.3818 15 13.5 13.8818 13.5 12.5C13.5 12.1753 13.4318 11.8658 13.3182 11.5818C13.0591 12.0364 12.5682 12.3409 12 12.3409C11.1682 12.3409 10.5 11.6727 10.5 10.8409C10.5 10.2727 10.8045 9.78182 11.2591 9.52273C10.975 9.40909 10.6655 9.34091 10.3409 9.34091C10.4545 9.34091 10.4545 10 11 10Z" fill="#6358DC"/>
</svg>